<svg class="svgClass" version="1.0" xmlns="http://www.w3.org/2000/svg" width="700.000000pt" height="700.000000pt" viewBox="0 0 700.000000 700.000000" preserveAspectRatio="xMidYMid meet">
    <!-- Left Signal Bars -->
    <g transform="translate(0.000000,700.000000) scale(0.100000,-0.100000)" fill="#000000" stroke="none" id="signal-left">
        <!-- 1st -->
        <path d="M2384 4810 c-60 -19 -129 -76 -211 -174 -178 -212 -286 -416 -361
-681 -77 -270 -77 -640 0 -910 73 -257 171 -446 338 -654 139 -172 190 -205
320 -206 75 0 91 3 131 27 107 63 153 140 153 258 1 93 -18 132 -114 240 -178
202 -274 418 -300 674 -35 332 69 643 300 906 96 108 115 147 114 240 0 118
-45 195 -149 256 -50 29 -165 41 -221 24z"></path>
        <!-- 2nd -->
        <path d="M1770 5431 c-52 -16 -90 -42 -150 -103 -409 -414 -675 -985 -730
-1563 -20 -215 -9 -537 26 -720 95 -501 295 -917 613 -1274 151 -170 194 -200
301 -208 199 -15 353 175 297 368 -16 54 -29 72 -193 259 -302 347 -474 820
-474 1310 0 325 60 592 200 885 89 190 209 362 374 540 80 86 101 133 101 225
0 90 -23 145 -87 209 -68 67 -190 98 -278 72z"></path>
        <!-- 3rd -->
        <path d="M1135 6042 c-121 -41 -426 -398 -632 -738 -327 -539 -498 -1161 -497
-1809 0 -852 294 -1638 855 -2290 140 -163 214 -227 286 -249 236 -71 447 165
348 389 -16 37 -52 85 -107 143 -396 414 -660 939 -762 1512 -53 297 -53 709
0 1000 107 584 360 1088 757 1507 105 110 137 173 137 263 0 196 -198 336
-385 272z"></path>
    </g>
    <!-- Middle Circle -->
    <g transform="translate(0.000000,700.000000) scale(0.100000,-0.100000)" fill="#000000" stroke="none" id="signal-circle">
        <path d="M3375 4068 c-27 -5 -88 -27 -134 -50 -353 -174 -430 -648 -151 -928
227 -226 597 -226 820 1 227 230 226 592 -1 819 -138 138 -333 196 -534 158z"></path>
    </g>
    <!-- Right Signal Bars -->
    <g transform="translate(0.000000,700.000000) scale(0.100000,-0.100000)" fill="#000000" stroke="none" id="signal-right">
        <!-- 1st -->
        <path d="M4455 4811 c-47 -12 -87 -36 -128 -76 -57 -56 -81 -115 -81 -205 -1
-93 18 -132 114 -240 179 -204 274 -417 301 -676 33 -329 -71 -642 -301 -904
-96 -108 -115 -147 -114 -240 0 -89 24 -149 79 -203 62 -61 118 -82 210 -82
69 1 87 4 134 30 50 27 120 98 213 215 132 166 248 397 308 617 73 271 75 628
3 893 -41 153 -137 376 -209 487 -108 164 -243 318 -314 357 -57 31 -154 43
-215 27z"></path>
        <!-- 2nd -->
        <path d="M5043 5420 c-135 -54 -211 -210 -169 -351 12 -42 32 -75 83 -133 142
-162 175 -204 237 -296 232 -347 346 -723 346 -1140 0 -539 -190 -1011 -575
-1425 -79 -86 -100 -133 -100 -225 0 -58 5 -86 23 -122 55 -111 162 -174 282
-165 87 6 131 30 223 124 266 273 476 623 597 992 192 590 172 1218 -56 1801
-81 207 -256 503 -399 675 -100 121 -214 234 -258 257 -60 30 -168 34 -234 8z">
        </path>
        <!-- 3rd -->
        <path d="M5682 6045 c-164 -51 -247 -233 -178 -390 17 -36 54 -86 113 -148
404 -425 665 -952 762 -1537 46 -275 46 -665 0 -940 -97 -583 -359 -1113 -762
-1537 -102 -108 -137 -173 -137 -258 0 -197 186 -336 373 -279 72 22 146 86
286 249 475 552 748 1177 837 1915 25 199 25 563 1 760 -55 444 -165 816 -353
1192 -159 317 -371 617 -598 844 -98 97 -118 112 -167 127 -66 20 -118 21
-177 2z"></path>
    </g>
</svg>