 <svg xmlns="http://www.w3.org/2000/svg" viewBox="0 0 700 416" preserveAspectRatio="xMidYMid meet" width="700pt" height="416pt" version="1.0">
<metadata>
Created by potrace 1.12, written by Peter Selinger 2001-2015
</metadata>
<g fill="green" stroke="none" transform="translate(0 416) scale(0.1 -0.1)" class="group1">
<path d="M 2100 3245 c -140 -8 -415 -19 -610 -24 c -279 -7 -365 -13 -400 -25 c -25 -9 -90 -22 -145 -29 l -100 -12 l -6 -37 c -4 -26 -20 -51 -53 -85 c -54 -54 -99 -120 -144 -208 c -129 -256 -144 -326 -135 -605 c 4 -143 3 -206 -6 -233 c -7 -20 -16 -37 -20 -37 c -13 0 -32 -52 -46 -124 c -18 -93 4 -245 41 -289 c 13 -16 24 -39 24 -51 c 0 -47 69 -92 162 -107 c 35 -5 99 -18 143 -28 c 91 -22 233 -36 264 -26 c 20 6 21 13 21 146 c 0 136 1 141 25 165 c 17 17 25 36 25 60 c 0 23 8 43 24 59 c 13 13 28 37 34 54 c 13 38 133 158 166 167 c 13 3 34 17 47 30 c 15 16 34 24 56 24 c 23 0 40 8 55 25 c 22 25 22 25 198 25 c 175 0 177 0 200 -25 c 15 -16 34 -25 55 -25 c 20 0 39 -8 51 -21 c 10 -11 33 -26 50 -34 c 57 -24 159 -129 169 -175 c 3 -16 17 -36 31 -44 c 19 -13 24 -25 24 -60 c 0 -32 6 -50 25 -70 c 23 -24 25 -36 27 -119 c 2 -123 0 -158 -14 -185 c -9 -17 -9 -25 1 -35 c 9 -9 286 -13 1243 -15 c 678 -2 1242 -1 1255 3 c 21 5 23 11 23 73 c 0 38 -7 87 -17 114 c -15 43 -15 50 0 85 c 8 21 18 71 20 111 c 4 62 8 76 31 97 c 14 13 26 33 26 45 c 0 12 11 31 24 43 c 13 12 26 32 30 45 c 4 12 11 22 14 22 c 4 0 34 25 67 55 c 33 30 76 60 95 65 c 19 5 40 18 47 28 c 9 15 28 20 85 25 c 50 3 86 12 111 27 c 30 18 48 21 88 18 c 27 -3 58 -13 68 -22 c 13 -12 44 -19 96 -23 c 65 -5 79 -9 91 -28 c 8 -13 27 -25 42 -28 c 15 -3 40 -17 54 -31 c 15 -13 36 -27 47 -31 c 11 -3 23 -14 26 -25 c 3 -10 17 -25 30 -34 c 14 -9 25 -22 25 -29 c 0 -7 14 -27 30 -45 c 17 -18 30 -42 30 -54 c 0 -11 11 -33 25 -50 c 22 -26 25 -39 27 -121 c 1 -51 0 -145 -1 -209 l -3 -117 l 27 -7 c 66 -17 195 16 265 67 c 14 11 45 29 70 41 c 35 18 52 37 79 83 c 32 56 35 70 48 215 c 19 213 4 420 -33 451 c -7 6 -18 28 -24 48 c -11 40 -128 171 -152 171 c -8 0 -23 9 -33 20 c -10 11 -34 22 -54 25 c -20 3 -92 17 -161 30 c -69 13 -179 29 -245 35 c -67 6 -142 17 -168 25 c -26 8 -116 19 -200 25 c -83 5 -180 17 -214 25 c -34 8 -106 19 -160 24 c -78 7 -114 17 -173 44 c -42 19 -81 42 -89 51 c -7 9 -18 16 -24 16 c -5 0 -26 12 -46 28 c -38 29 -51 38 -132 93 c -30 19 -67 44 -83 55 c -32 22 -115 73 -166 104 c -19 11 -55 34 -80 50 c -25 16 -68 40 -96 54 c -28 13 -54 29 -58 35 c -4 6 -25 15 -48 21 c -22 6 -52 24 -67 39 c -42 46 -63 53 -110 37 c -36 -13 -48 -13 -118 5 c -61 15 -139 21 -363 29 c -157 5 -400 14 -540 20 c -459 18 -562 19 -820 5 Z m -12 -127 c 34 -29 -6 -122 -110 -249 c -27 -32 -48 -62 -48 -68 c 0 -5 -15 -27 -32 -49 c -18 -23 -44 -58 -58 -78 c -14 -21 -41 -55 -61 -76 l -37 -38 l -479 0 c -387 0 -483 3 -498 14 c -36 26 1 139 90 276 c 38 58 46 68 127 153 l 66 71 l 119 12 c 65 6 172 17 238 23 c 140 14 584 31 635 24 c 19 -3 41 -9 48 -15 Z m 1004 -3 c 31 -12 38 -64 38 -298 c 0 -200 -2 -233 -17 -249 c -15 -17 -40 -18 -382 -18 c -201 0 -384 5 -406 10 c -26 6 -52 22 -74 46 c -33 36 -34 38 -28 105 c 4 42 17 95 37 141 c 84 200 131 257 224 270 c 60 8 584 2 608 -7 Z m 733 -13 c 33 -11 74 -23 91 -27 c 17 -3 46 -17 65 -31 c 18 -13 37 -24 42 -24 c 6 0 24 -10 41 -23 c 17 -12 42 -28 56 -35 c 14 -7 39 -22 56 -35 c 18 -12 59 -39 92 -59 l 60 -37 l 0 -151 c 0 -135 -2 -151 -18 -160 c -12 -6 -192 -10 -463 -10 c -434 0 -445 0 -471 21 l -26 20 l 0 228 c 0 246 9 305 53 337 c 34 24 339 14 422 -14 Z" />
<path d="M 5425 2072 c -11 -4 -36 -16 -55 -26 c -19 -10 -63 -21 -97 -24 c -49 -4 -66 -9 -74 -23 c -5 -11 -26 -26 -46 -34 c -31 -13 -46 -24 -92 -70 c -50 -50 -81 -91 -81 -107 c 0 -10 -11 -29 -24 -41 c -18 -17 -26 -37 -31 -82 c -3 -33 -13 -81 -22 -106 c -14 -41 -14 -51 1 -112 c 9 -37 20 -91 23 -120 c 3 -28 14 -61 23 -72 c 10 -11 26 -36 35 -55 c 29 -57 184 -200 218 -200 c 8 0 36 -12 63 -27 c 47 -27 54 -28 199 -28 c 138 0 153 2 186 23 c 20 12 43 22 51 22 c 50 0 224 157 254 229 c 8 19 23 43 33 52 c 14 13 20 40 25 119 c 10 139 -2 320 -21 327 c -8 3 -24 24 -34 47 c -28 59 -75 122 -112 148 c -17 12 -40 31 -49 40 c -10 10 -24 18 -31 18 c -7 0 -23 11 -34 23 c -16 19 -35 25 -84 30 c -40 5 -74 15 -91 27 c -30 22 -100 33 -133 22 Z m 215 -185 c 144 -70 216 -164 261 -342 c 11 -44 4 -116 -16 -155 c -7 -14 -16 -41 -20 -60 c -13 -62 -111 -167 -200 -214 c -50 -27 -81 -35 -142 -40 c -97 -8 -215 6 -250 31 c -14 10 -34 23 -45 29 c -20 12 -91 78 -121 114 c -10 12 -25 39 -32 60 c -7 21 -21 50 -30 64 c -27 40 -25 200 2 252 c 12 21 27 54 33 72 c 21 55 118 144 201 185 c 81 39 118 46 224 40 c 52 -3 87 -13 135 -36 Z" />
<path d="M 5545 1800 c -10 -17 -8 -81 3 -92 c 15 -15 72 36 72 64 c 0 26 -62 49 -75 28 Z" />
<path d="M 5311 1786 c -11 -13 -8 -21 18 -47 c 39 -39 56 -34 56 17 c 0 36 -2 39 -31 42 c -18 2 -36 -3 -43 -12 Z" />
<path d="M 5155 1631 c -13 -41 19 -66 63 -50 c 28 10 28 23 0 49 c -27 25 -55 26 -63 1 Z" />
<path d="M 5730 1643 c -17 -6 -40 -32 -40 -45 c 0 -5 12 -13 26 -18 c 37 -14 66 4 62 38 c -3 27 -20 36 -48 25 Z" />
<path d="M 5435 1510 c -4 -7 -3 -16 3 -22 c 14 -14 47 -6 47 12 c 0 18 -40 26 -50 10 Z" />
<path d="M 5163 1413 c -17 -6 -16 -58 1 -72 c 10 -8 20 -6 42 11 c 41 32 46 41 27 56 c -17 12 -47 15 -70 5 Z" />
<path d="M 5703 1413 c -31 -6 -29 -27 4 -53 c 37 -29 67 -23 71 14 c 5 41 -14 51 -75 39 Z" />
<path d="M 5547 1294 c -4 -4 -7 -31 -7 -61 c 0 -39 4 -55 16 -60 c 16 -6 64 32 64 52 c 0 16 -65 77 -73 69 Z" />
<path d="M 5335 1256 c -24 -20 -28 -28 -19 -42 c 15 -26 39 -38 58 -31 c 11 5 16 19 16 52 c 0 52 -11 56 -55 21 Z" />
<path d="M 1520 2000 c -6 -12 -29 -25 -55 -31 c -24 -6 -46 -17 -49 -24 c -3 -8 -19 -21 -37 -30 c -38 -20 -119 -102 -119 -120 c 0 -8 -11 -22 -25 -33 c -15 -12 -27 -34 -31 -60 c -4 -25 -16 -49 -31 -62 c -24 -21 -24 -23 -21 -168 c 3 -142 4 -148 31 -187 c 15 -22 27 -47 27 -55 c 0 -36 165 -230 196 -230 c 6 0 28 -11 48 -25 c 39 -26 202 -65 274 -65 c 55 0 211 38 242 58 c 14 9 41 24 60 33 c 40 18 128 105 167 164 c 14 22 32 60 40 84 c 7 25 22 53 33 63 c 18 17 20 32 20 160 c 0 137 -1 141 -25 164 c -17 16 -25 34 -25 57 c 0 24 -9 43 -30 65 c -16 18 -30 36 -30 42 c 0 11 -100 110 -112 110 c -4 0 -22 14 -40 30 c -17 17 -42 30 -55 30 c -13 0 -34 11 -47 25 c -23 25 -24 25 -209 25 c -176 0 -187 -1 -197 -20 Z m 328 -123 c 35 -8 73 -23 85 -34 c 12 -10 34 -25 49 -32 c 31 -16 77 -70 128 -151 l 34 -55 l 1 -135 l 0 -135 l -32 -49 c -18 -27 -33 -54 -33 -59 c 0 -17 -122 -125 -154 -137 c -17 -6 -50 -21 -74 -33 c -60 -31 -213 -31 -263 0 c -19 12 -48 24 -65 27 c -38 8 -147 113 -188 180 c -20 34 -31 69 -38 127 c -14 102 1 231 30 262 c 11 12 23 32 26 44 c 18 58 161 166 236 178 c 25 4 54 11 65 16 c 25 11 111 5 193 -14 Z" />
<path d="M 1582 1778 c -18 -18 -15 -53 6 -71 c 28 -25 40 -21 48 18 c 9 52 -23 84 -54 53 Z" />
<path d="M 1812 1778 c -16 -16 -15 -50 2 -73 c 14 -19 15 -19 35 -1 c 32 29 23 86 -14 86 c -6 0 -16 -5 -23 -12 Z" />
<path d="M 1415 1603 c -31 -35 -31 -41 1 -53 c 36 -14 84 -12 90 3 c 4 12 -46 77 -60 77 c -3 0 -17 -12 -31 -27 Z" />
<path d="M 1962 1599 c -20 -18 -31 -36 -28 -45 c 10 -25 106 -14 106 13 c 0 16 -29 63 -39 63 c -3 0 -21 -14 -39 -31 Z" />
<path d="M 1707 1484 c -16 -16 -7 -44 14 -44 c 15 0 20 5 17 22 c -3 22 -19 33 -31 22 Z" />
<path d="M 1415 1379 c -10 -16 3 -56 20 -63 c 20 -7 55 28 55 54 c 0 16 -7 20 -34 20 c -19 0 -38 -5 -41 -11 Z" />
<path d="M 1950 1371 c 0 -12 9 -30 21 -42 c 20 -20 21 -20 40 -3 c 11 10 19 27 17 38 c -2 16 -12 22 -40 24 c -33 3 -38 0 -38 -17 Z" />
<path d="M 1575 1214 c -31 -40 -24 -54 27 -54 c 22 0 29 6 34 27 c 7 26 -4 54 -23 60 c -5 2 -23 -13 -38 -33 Z" />
<path d="M 1812 1238 c -7 -7 -12 -21 -12 -33 c 0 -28 18 -45 47 -45 c 33 0 39 24 13 60 c -24 33 -30 36 -48 18 Z" />
</g>
</svg>