<svg xmlns="http://www.w3.org/2000/svg" xmlns:xlink="http://www.w3.org/1999/xlink" id="svgLayerSpeed" width="100%" height="100%" viewBox="0 0 325 500" preserveAspectRatio="xMidYMid meet" >
  <rect id="svgEditorBackground" x="0" y="0" width="1000" height="670" style="fill:none; stroke: none;"/>
  <defs id="svgEditorDefs">
    <linearGradient gradientUnits="objectBoundingBox" id="lgrd2-fire" spreadMethod="pad" x1="0%" x2="100%" y1="0%" y2="0%">
      <stop offset="0%" style="stop-color:rgb(255,255,0);stop-opacity:1"/>
      <stop offset="100%" style="stop-color:rgb(255,0,0);stop-opacity:1"/>
    </linearGradient>
    <pattern height="10" id="hatch-black-45" patternTransform="rotate(45) scale(0.4)" patternUnits="userSpaceOnUse" viewBox="0 0 10 10" width="10" x="0" y="0">
      <line style="stroke:black;stroke-width:1px;" x1="0" x2="10" y1="5" y2="5"/>
    </pattern>
    <filter filterUnits="objectBoundingBox" height="200%" id="dropshadow" width="200%">
      <feGaussianBlur in="SourceAlpha" result="shadow" stdDeviation="5"/>
      <feOffset dx="10" dy="10" in="shadow" result="shadowoffset"/>
      <feFlood flood-color="rgba(0,0,0,0.6)"/>
      <feComposite in2="shadowoffset" operator="in"/>
      <feMerge result="dropshadowresult">
        <feMergeNode/>
        <feMergeNode in="SourceGraphic"/>
      </feMerge>
    </filter>
  </defs>
  <rect x="-77.9138" y="0.386105" style="stroke: black; stroke-width: 4px; stroke-linecap: round; stroke-linejoin: round;fill:none;filter:url(#dropshadow);" id="data_display" width="417.146" height="273.457" rx="20" ry="20" transform="matrix(0.515595 0 0 1.67676 97.6057 9.26965)"/>
  <text style="fill:black;font-family:Arial;font-size:20px;" x="56.4169" y="63.6064" id="e3_texte" transform="matrix(1.72535 0 0 1.00725 24.1498 74.7985)">LIMIT</text>
  <text style="fill:black;font-family:Arial;font-size:20px;" x="281.066" y="300.064" id="e4_texte" transform="matrix(1.12135 0 0 0.654636 0.899216 60.6235)"/>
  <text style="fill:black;font-family:Arial;font-size:20px;" x="39.0048" y="276.78" id="e5_texte" transform="matrix(1.72535 0 0 1.00725 24.1498 74.7985)">ACTUAL</text>
  <text style="fill:black;font-family:Arial;font-size:20px;" x="53.8302" y="168.093" id="e6_texte" transform="matrix(1.72535 0 0 1.00725 24.1498 74.7985)">CMD</text>
  <text style="fill:black;font-family:Arial;font-size:20px;" x="2.06166" y="-82.7839" id="e7_texte" transform="matrix(1.99607 0 0 0.96934 94.8355 135.065)">SPEED</text>
  <line id="e1_line" x1="-17.757" y1="82.3589" x2="248.946" y2="81.2839" style="stroke:cornflowerblue;fill:none;stroke-width:1px;" transform="matrix(0.666253 0 0 1.53863 94.2904 -18.4789)"/>
  <text style="fill:black;font-family:Arial;font-size:20px;" x="149" y="179" id="e10_texte"/>
  <text id="svgLimitText" style="fill:black;font-family:Arial;font-size:20px;" x="77.2574" y="131.885" transform="matrix(1.53863 0 0 1.53863 22.7662 -18.4789)">50</text>
  <text id="svgCmdText" style="fill:black;font-family:Arial;font-size:20px;" x="76.9084" y="199.973" transform="matrix(1.53863 0 0 1.53863 22.7662 -18.4789)">40</text>
  <text id="svgActualText" style="fill:black;font-family:Arial;font-size:20px;" x="77.5744" y="271.668" transform="matrix(1.53863 0 0 1.53863 22.7662 -18.4789)">35</text>
  <text style="fill:black;font-family:Arial;font-size:20px;" x="5.12115" y="-53.7653" id="e2_texte" transform="matrix(1.99607 0 0 0.96934 94.8355 135.065)">(MPH)</text></svg>