<svg xmlns="http://www.w3.org/2000/svg" xmlns:xlink="http://www.w3.org/1999/xlink" version="1.1" id="svgLayer" x="0px" y="0px" viewBox="0 0 325 500" style="enable-background:new 0 0 504.123 504.123;" xml:space="preserve" width="100%" height="100%" preserveAspectRatio="xMidYMid meet" >
<defs id="svgEditorDefs"><linearGradient gradientUnits="objectBoundingBox" id="lgrd2-b-reflect" spreadMethod="reflect" x1="0%" x2="10%" y1="0%" y2="10%"><stop offset="5%" stop-color="#babc91" stop-opacity="1"/><stop offset="95%" stop-color="#c8d591" stop-opacity="1"/></linearGradient>
<linearGradient gradientUnits="objectBoundingBox" id="lgrd2-black-white" spreadMethod="pad" x1="0%" x2="100%" y1="0%" y2="100%">
  <stop offset="0%" stop-color="black"/><stop offset="100%" stop-color="white"/>
</linearGradient>
</defs>
<rect id="svgEditorBackground" x="0" y="0" width="325" height="500" style="fill:none; stroke: none;"/>
<path style="fill:#1D2226;" d="M237.97720117174546,136.01100000000002c0,6.735000000000014,5.474000000000018,12.201000000000022,12.201000000000136,12.201000000000022h32.07499999999985c6.735000000000014,0,12.201000000000022,-5.459000000000003,12.201000000000022,-12.201000000000022l19.291000000000054,-50.85300000000004c0,-6.735000000000014,-5.474000000000046,-12.200999999999993,-12.216999999999985,-12.200999999999993h-51.357999999999976c-6.727000000000004,0,-12.201000000000136,5.459000000000003,-12.201000000000136,12.200999999999993v50.85300000000004h0.008000000000038199Z" transform="matrix(0.754278 0 0 0.754278 55.3838 12.7545)"/>
<path style="fill:#2D333A;" d="M155.56120117174544,76.406c0,5.7339999999999804,4.647000000000048,10.365999999999985,10.365999999999985,10.365999999999985h147.41700000000003c5.726999999999975,0,10.365999999999985,-4.639999999999986,10.365999999999985,-10.365999999999985l0,0c0,-5.727000000000004,-4.647000000000048,-10.358000000000004,-10.365999999999985,-10.358000000000004h-147.409c-5.726999999999975,0,-10.374000000000024,4.639999999999986,-10.374000000000024,10.358000000000004l0,0Z" transform="matrix(0.754278 0 0 0.754278 55.3838 12.7545)"/>
<path style="fill:#1D2226;" d="M237.97720117174546,280.938c0,6.742999999999995,5.474000000000018,12.209000000000003,12.201000000000136,12.209000000000003h32.07499999999985c6.735000000000014,0,12.201000000000022,-5.459000000000003,12.201000000000022,-12.209000000000003l19.291000000000054,-50.84599999999992c0,-6.735000000000014,-5.474000000000046,-12.201000000000022,-12.216999999999985,-12.201000000000022h-51.357999999999976c-6.727000000000004,0,-12.201000000000136,5.459000000000003,-12.201000000000136,12.201000000000022v50.84599999999992h0.008000000000038199Z" transform="matrix(0.754278 0 0 0.754278 55.3838 12.7545)"/>
<path style="fill:#2D333A;" d="M155.56120117174544,221.34900000000007c0,5.726999999999975,4.647000000000048,10.365999999999985,10.365999999999985,10.365999999999985h147.41700000000003c5.726999999999975,0,10.365999999999985,-4.646999999999991,10.365999999999985,-10.365999999999985l0,0c0,-5.727000000000032,-4.647000000000048,-10.358000000000004,-10.365999999999985,-10.358000000000004h-147.409c-5.726999999999975,-0.007999999999981355,-10.374000000000024,4.632000000000005,-10.374000000000024,10.358000000000004l0,0Z" transform="matrix(0.754278 0 0 0.754278 55.3838 12.7545)"/>
<path style="fill:#1D2226;" d="M237.97720117174546,425.874c0,6.735000000000014,5.474000000000018,12.201000000000022,12.201000000000136,12.201000000000022h32.07499999999985c6.735000000000014,0,12.201000000000022,-5.459000000000003,12.201000000000022,-12.201000000000022l19.291000000000054,-50.846000000000004c0,-6.735000000000014,-5.474000000000046,-12.209000000000003,-12.216999999999985,-12.209000000000003h-51.357999999999976c-6.727000000000004,0,-12.201000000000136,5.4669999999999845,-12.201000000000136,12.209000000000003v50.846000000000004h0.008000000000038199Z" transform="matrix(0.754278 0 0 0.754278 55.3838 12.7545)"/>
<path style="fill:#2D333A;" d="M155.56120117174544,366.285c0,5.726999999999975,4.647000000000048,10.358000000000004,10.365999999999985,10.358000000000004h147.41700000000003c5.726999999999975,0,10.365999999999985,-4.6399999999999295,10.365999999999985,-10.358000000000004l0,0c0,-5.726999999999975,-4.647000000000048,-10.365999999999985,-10.365999999999985,-10.365999999999985h-147.409c-5.726999999999975,0,-10.374000000000024,4.638999999999953,-10.374000000000024,10.365999999999985l0,0Z" transform="matrix(0.754278 0 0 0.754278 55.3838 12.7545)"/>
<path style="fill:#393F47;" d="M44.378201171745545,136.011c0,6.735000000000014,-5.474000000000004,12.200999999999993,-12.201000000000064,12.200999999999993h-32.07500000000002c-6.734999999999999,0,-12.201000000000008,-5.459000000000003,-12.201000000000008,-12.200999999999993l-19.290999999999997,-50.854c0,-6.734999999999999,5.474000000000004,-12.201000000000008,12.216999999999999,-12.201000000000008h51.358000000000004c6.727000000000061,0,12.201000000000064,5.459000000000003,12.201000000000064,12.200999999999993v50.85300000000001h-0.007999999999981355Z" transform="matrix(0.754278 0 0 0.754278 55.3838 12.7545)"/>
<path style="fill:#2D333A;" d="M126.7942011717455,76.406c0,5.733999999999995,-4.646999999999991,10.366,-10.365999999999985,10.366h-147.41600000000005c-5.727000000000004,0,-10.366000000000007,-4.640000000000001,-10.366000000000007,-10.366l0,0c0,-5.727000000000004,4.64700000000002,-10.358000000000004,10.366000000000007,-10.358000000000004h147.41700000000003c5.718000000000018,0,10.365000000000009,4.640000000000001,10.365000000000009,10.358000000000004l0,0Z" transform="matrix(0.754278 0 0 0.754278 55.3838 12.7545)"/>
<path style="fill:#393F47;" d="M44.378201171745545,280.938c0,6.742999999999995,-5.474000000000004,12.209000000000003,-12.201000000000064,12.209000000000003h-32.07500000000002c-6.734999999999999,0,-12.201000000000008,-5.459000000000003,-12.201000000000008,-12.209000000000003l-19.290999999999997,-50.846000000000004c0,-6.735000000000014,5.474000000000004,-12.200999999999993,12.216999999999999,-12.200999999999993h51.358000000000004c6.727000000000061,0,12.201000000000064,5.459000000000003,12.201000000000064,12.200999999999993v50.846000000000004h-0.007999999999981355Z" transform="matrix(0.754278 0 0 0.754278 55.3838 12.7545)"/>
<path style="fill:#2D333A;" d="M126.7942011717455,221.349c0,5.727000000000004,-4.646999999999991,10.365999999999985,-10.365999999999985,10.365999999999985h-147.41600000000005c-5.727000000000004,0,-10.366000000000007,-4.646999999999991,-10.366000000000007,-10.365999999999985l0,0c0,-5.727000000000004,4.64700000000002,-10.358000000000004,10.366000000000007,-10.358000000000004h147.41700000000003c5.718000000000018,-0.007999999999981355,10.365000000000009,4.632000000000005,10.365000000000009,10.358000000000004l0,0Z" transform="matrix(0.754278 0 0 0.754278 55.3838 12.7545)"/>
<path style="fill:#393F47;" d="M44.378201171745545,425.874c0,6.735000000000014,-5.474000000000004,12.201000000000022,-12.201000000000064,12.201000000000022h-32.07500000000002c-6.734999999999999,0,-12.201000000000008,-5.459000000000003,-12.201000000000008,-12.201000000000022l-19.290999999999997,-50.846000000000004c0,-6.735000000000014,5.474000000000004,-12.209000000000003,12.216999999999999,-12.209000000000003h51.358000000000004c6.727000000000061,0,12.201000000000064,5.4669999999999845,12.201000000000064,12.209000000000003v50.846000000000004h-0.007999999999981355Z" transform="matrix(0.754278 0 0 0.754278 55.3838 12.7545)"/>
<path style="fill:#2D333A;" d="M126.7942011717455,366.285c0,5.726999999999975,-4.646999999999991,10.358000000000004,-10.365999999999985,10.358000000000004h-147.41600000000005c-5.727000000000004,0,-10.366000000000007,-4.639999999999986,-10.366000000000007,-10.358000000000004l0,0c0,-5.726999999999975,4.64700000000002,-10.365999999999985,10.366000000000007,-10.365999999999985h147.41700000000003c5.718000000000018,-5.684341886080802e-14,10.365000000000009,4.638999999999953,10.365000000000009,10.365999999999985l0,0Z" transform="matrix(0.754278 0 0 0.754278 55.3838 12.7545)"/>
<path style="fill:#444951;" d="M264.28620117174546,472.86c0,17.25799999999998,1.7490000000000236,31.26400000000001,-15.517999999999802,31.26400000000001h-215.18100000000032c-17.25799999999994,0,-15.517999999999986,-13.997000000000014,-15.517999999999986,-31.26400000000001v-441.596c0,-17.25900000000002,14.00500000000001,-31.264000000000017,31.272000000000006,-31.264000000000017h183.67400000000015c17.25800000000001,0,31.270999999999958,13.997,31.270999999999958,31.264000000000017v441.596Z" transform="matrix(0.754278 0 0 0.754278 55.3838 12.7545)"/>
<path style="fill:#393F47;" d="M18.069201171745405,31.264000000000003c0,-17.259000000000007,14.00500000000001,-31.264000000000003,31.272000000000062,-31.264000000000003h183.67400000000004c17.25800000000001,0,31.270999999999958,13.997,31.270999999999958,31.264000000000003v441.5960000000001c0,17.25799999999998,1.7490000000000236,31.26400000000001,-15.517999999999802,31.26400000000001" transform="matrix(0.754278 0 0 0.754278 55.3838 12.7545)"/>
<path style="fill:#2D333A;" d="M191.1022011717455,104.369c0,27.19100000000006,-22.048000000000002,80.73800000000006,-49.231000000000165,80.73800000000006c-27.198999999999955,0,-49.23099999999988,-53.547,-49.23099999999988,-80.73800000000006s22.031999999999925,-49.231,49.23099999999988,-49.231c27.183000000000163,0,49.231000000000165,22.04,49.231000000000165,49.231Z" transform="matrix(0.754278 0 0 0.754278 55.3838 12.7545)"/>
<circle id="svgCircleTop" style="fill:url(#lgrd2-black-white);" cx="141.87120942754146" cy="104.36900329589844" r="60" transform="matrix(0.754278 0 0 0.754278 55.3838 12.7545)"/>
<path id="svgCircleTopPath" style="fill:silver;" d="M107.05520117174541,69.561c19.219999999999914,-19.22799999999998,50.38900000000007,-19.22799999999998,69.61600000000004,0c19.228000000000065,19.22,19.228000000000065,50.39700000000002,0,69.62400000000005" transform="matrix(0.754278 0 0 0.754278 55.3838 12.7545)"/>
<path style="fill:#2D333A;" d="M191.1022011717455,239.59200000000007c0,27.190999999999946,-22.048000000000002,80.73799999999997,-49.231000000000165,80.73799999999997c-27.198999999999955,0,-49.23099999999988,-53.547000000000025,-49.23099999999988,-80.73799999999991s22.031999999999925,-49.230999999999995,49.23099999999988,-49.230999999999995c27.183000000000163,0.0009999999999195097,49.231000000000165,22.039999999999964,49.231000000000165,49.23099999999994Z" transform="matrix(0.754278 0 0 0.754278 55.3838 12.7545)"/>
<circle id="svgCircleMiddle" style="fill:url(#lgrd2-black-white);"  cx="141.87120942754146" cy="239.59202575683594" r="60" transform="matrix(0.754278 0 0 0.754278 55.3838 12.7545)"/>
<path id="svgCircleMiddlePath" style="fill:silver;" d="M107.05520117174541,204.7760000000001c19.219999999999914,-19.22800000000001,50.38900000000007,-19.22800000000001,69.61600000000004,0c19.228000000000065,19.21999999999997,19.228000000000065,50.39699999999999,0,69.62399999999988" transform="matrix(0.754278 0 0 0.754278 55.3838 12.7545)"/>
<path style="fill:#2D333A;" d="M191.1022011717455,374.808c0,27.190999999999974,-22.048000000000002,80.738,-49.231000000000165,80.738c-27.198999999999955,0,-49.23099999999988,-53.54699999999997,-49.23099999999988,-80.738c0,-27.190999999999974,22.031999999999925,-49.230999999999995,49.23099999999988,-49.230999999999995c27.183000000000163,0,49.231000000000165,22.038999999999987,49.231000000000165,49.230999999999995Z" transform="matrix(0.754278 0 0 0.754278 55.3838 12.7545)"/>
<circle id="svgCircleBottom" style="fill:url(#lgrd2-black-white);" cx="141.87120942754146" cy="374.78399658203125" r="60" transform="matrix(0.754278 0 0 0.754278 55.3838 12.7545)"/>
<path id="svgCircleBottomPath" style="fill:silver;" d="M107.05520117174541,340c19.219999999999914,-19.22800000000001,50.38900000000007,-19.22800000000001,69.61600000000004,0c19.228000000000065,19.220000000000027,19.228000000000065,50.39699999999999,0,69.62400000000002" transform="matrix(0.754278 0 0 0.754278 55.3838 12.7545)"/>
<path style="fill:#4F545B;" d="M33.58720117174539,504.12300000000005c-17.25799999999994,0,-15.517999999999986,-13.997000000000071,-15.517999999999986,-31.264000000000067v-441.59499999999997c0,-17.25900000000002,14.00500000000001,-31.264000000000017,31.272000000000062,-31.264000000000017" transform="matrix(0.754278 0 0 0.754278 55.3838 12.7545)"/>

<text id="svgCircleTopText"  style="fill:black;font-family:Arial;font-size:20px;" x="195.066" y="93.3004" transform="matrix(2.381 -0.0485621 0.0485621 2.381 -335.377 -105.467)" dx="" dy=""></text>
<text id="svgCircleMiddleText" style="fill:black;font-family:Arial;font-size:20px;" x="194" y="135.623" transform="matrix(2.381 -0.0485621 0.0485621 2.381 -335.377 -105.467)" dx="" dy=""></text>
<text id="svgCircleBottomText" style="fill:black;font-family:Arial;font-size:20px;" x="193.411" y="179.753"  transform="matrix(2.381 -0.0485621 0.0485621 2.381 -335.377 -105.467)" dx="" dy=""></text>

 <rect id="svgEditorBackground" x="0" y="0" width="1000" height="670" style="fill:none; stroke: none;"/>
<defs id="svgEditorDefs">
  <linearGradient gradientUnits="objectBoundingBox" id="lgrd2-fire" spreadMethod="pad" x1="0%" x2="100%" y1="0%" y2="0%">
    <stop offset="0%" style="stop-color:rgb(255,255,0);stop-opacity:1"/>
    <stop offset="100%" style="stop-color:rgb(255,0,0);stop-opacity:1"/>
  </linearGradient>
  <pattern height="10" id="hatch-black-45" patternTransform="rotate(45) scale(0.4)" patternUnits="userSpaceOnUse" viewBox="0 0 10 10" width="10" x="0" y="0">
    <line style="stroke:black;stroke-width:1px;" x1="0" x2="10" y1="5" y2="5"/>
  </pattern>
  <filter filterUnits="objectBoundingBox" height="200%" id="dropshadow" width="200%">
    <feGaussianBlur in="SourceAlpha" result="shadow" stdDeviation="5"/>
    <feOffset dx="10" dy="10" in="shadow" result="shadowoffset"/>
    <feFlood flood-color="rgba(0,0,0,0.6)"/>
    <feComposite in2="shadowoffset" operator="in"/>
    <feMerge result="dropshadowresult">
      <feMergeNode/>
      <feMergeNode in="SourceGraphic"/>
    </feMerge>
  </filter>
</defs>
<text style="fill:black;font-family:Arial;font-size:20px;" x="57.1746" y="775.701" id="e14_texte" transform="matrix(0.977967 0 0 0.570929 31.8616 9.59514)">LANE</text>
<text style="fill:black;font-family:Arial;font-size:20px;" x="139.979" y="774.771" id="e1_texte" transform="matrix(0.977967 0 0 0.570929 31.8616 9.59514)">DIST (m)</text>
<text style="fill:black;font-family:Arial;font-size:20px;" x="281.066" y="300.064" id="e4_texte" transform="matrix(1.12135 0 0 0.654636 0.899216 60.6235)"/>
<line id="e2_line" x1="17.467520931423905" y1="525.0269775390625" x2="287.3961384088409" y2="523.9500122070312" style="stroke:cornflowerblue;fill:none;stroke-width:1px;" transform="matrix(0.872134 0 0 0.872134 31.0773 -43.2765)"/>
<line id="e3_line" x1="15.469519832791093" y1="550.0280151367188" x2="289.70613596743465" y2="550.0269775390625" style="stroke:cornflowerblue;fill:none;stroke-width:1px;" transform="matrix(0.872134 0 0 0.872134 31.0773 -43.2765)"/>
<text style="fill:black;font-family:Arial;font-size:20px;" x="-20.5727" y="703.762" id="e8_texte" transform="matrix(1.13142 0 0 0.549443 71.9278 43.7552)">INTERSECTION 9999</text>
<text style="fill:black;font-family:Arial;font-size:20px;" x="149" y="179" id="e10_texte"/>
<text style="fill:black;font-family:Arial;font-size:20px;" x="83.3095" y="591.802" id="e9_texte" transform="matrix(0.872134 0 0 0.872134 31.0773 -43.2765)">15</text>
<text style="fill:black;font-family:Arial;font-size:20px;" x="181.333" y="590.724" id="e11_texte" transform="matrix(0.872134 0 0 0.872134 31.0773 -43.2765)">10</text>
<rect x="-41.25201045987413" y="885.3109741210938" style="stroke: black; stroke-width: 4px; stroke-linecap: round; stroke-linejoin: round;fill:none;filter:url(#dropshadow);" id="e2_display" width="415.079" height="233.141" rx="20" ry="20" transform="matrix(0.633809 0 0 0.357541 58.7762 85.9603)"/>
</svg>